<svg width="20" height="23" viewBox="0 0 20 23" fill="none" xmlns="http://www.w3.org/2000/svg">
<path d="M1.42857 20.5417C1.42857 21.1053 1.65434 21.6458 2.0562 22.0443C2.45806 22.4428 3.00311 22.6667 3.57143 22.6667H16.4286C16.9969 22.6667 17.5419 22.4428 17.9438 22.0443C18.3457 21.6458 18.5714 21.1053 18.5714 20.5417V5.66668H1.42857V20.5417ZM13.5714 9.20834C13.5714 9.02048 13.6467 8.84031 13.7806 8.70747C13.9146 8.57464 14.0963 8.50001 14.2857 8.50001C14.4752 8.50001 14.6568 8.57464 14.7908 8.70747C14.9247 8.84031 15 9.02048 15 9.20834V19.125C15 19.3129 14.9247 19.493 14.7908 19.6259C14.6568 19.7587 14.4752 19.8333 14.2857 19.8333C14.0963 19.8333 13.9146 19.7587 13.7806 19.6259C13.6467 19.493 13.5714 19.3129 13.5714 19.125V9.20834ZM9.28571 9.20834C9.28571 9.02048 9.36097 8.84031 9.49492 8.70747C9.62888 8.57464 9.81056 8.50001 10 8.50001C10.1894 8.50001 10.3711 8.57464 10.5051 8.70747C10.639 8.84031 10.7143 9.02048 10.7143 9.20834V19.125C10.7143 19.3129 10.639 19.493 10.5051 19.6259C10.3711 19.7587 10.1894 19.8333 10 19.8333C9.81056 19.8333 9.62888 19.7587 9.49492 19.6259C9.36097 19.493 9.28571 19.3129 9.28571 19.125V9.20834ZM5 9.20834C5 9.02048 5.07525 8.84031 5.20921 8.70747C5.34316 8.57464 5.52485 8.50001 5.71429 8.50001C5.90373 8.50001 6.08541 8.57464 6.21936 8.70747C6.35332 8.84031 6.42857 9.02048 6.42857 9.20834V19.125C6.42857 19.3129 6.35332 19.493 6.21936 19.6259C6.08541 19.7587 5.90373 19.8333 5.71429 19.8333C5.52485 19.8333 5.34316 19.7587 5.20921 19.6259C5.07525 19.493 5 19.3129 5 19.125V9.20834ZM19.2857 1.41667H13.9286L13.5089 0.58881C13.42 0.411821 13.2831 0.262942 13.1135 0.158922C12.944 0.0549011 12.7485 -0.000134051 12.5491 7.76188e-06H7.44643C7.24749 -0.000750621 7.05236 0.0540793 6.8834 0.158216C6.71443 0.262352 6.57846 0.411583 6.49107 0.58881L6.07143 1.41667H0.714286C0.524845 1.41667 0.343164 1.4913 0.209209 1.62414C0.0752549 1.75698 0 1.93715 0 2.12501L0 3.54167C0 3.72954 0.0752549 3.9097 0.209209 4.04254C0.343164 4.17538 0.524845 4.25001 0.714286 4.25001H19.2857C19.4752 4.25001 19.6568 4.17538 19.7908 4.04254C19.9247 3.9097 20 3.72954 20 3.54167V2.12501C20 1.93715 19.9247 1.75698 19.7908 1.62414C19.6568 1.4913 19.4752 1.41667 19.2857 1.41667Z" fill="white" fill-opacity="0.75"/>
</svg>
