<svg width="20" height="16" viewBox="0 0 20 16" fill="none" xmlns="http://www.w3.org/2000/svg">
<path d="M7.14645 14.8107L7.14643 14.8107L0.646434 8.31067C0.451203 8.11544 0.451173 7.79886 0.646439 7.60356C0.646443 7.60355 0.646448 7.60355 0.646452 7.60354L2.06062 6.18934L2.06063 6.18932C2.25587 5.99406 2.57247 5.99406 2.76771 6.18932L2.76773 6.18934L7.14644 10.568L7.49999 10.9216L7.85354 10.568L17.2323 1.18934L16.8787 0.835789L17.2323 1.18934C17.4275 0.994096 17.7441 0.994096 17.9394 1.18934L19.3535 2.60356L19.7048 2.25232L19.3535 2.60356C19.5488 2.7988 19.5488 3.11539 19.3535 3.31069L7.85357 14.8107C7.85356 14.8107 7.85355 14.8107 7.85355 14.8107C7.65825 15.006 7.34168 15.0059 7.14645 14.8107Z" fill="white" stroke="#E76086"/>
</svg>
